<mxfile host="app.diagrams.net" modified="2023-06-30T12:23:29.087Z" agent="Mozilla/5.0 (Windows NT 10.0; Win64; x64) AppleWebKit/537.36 (KHTML, like Gecko) Chrome/112.0.0.0 YaBrowser/23.5.2.625 Yowser/2.5 Safari/537.36" etag="Daf7_HgYGklP_HmLyGq3" version="21.5.2" type="github">
  <diagram name="Страница 1" id="1MaOiBwRmsNrjapzq04G">
    <mxGraphModel dx="956" dy="529" grid="1" gridSize="10" guides="1" tooltips="1" connect="1" arrows="1" fold="1" page="1" pageScale="1" pageWidth="827" pageHeight="1169" math="0" shadow="0">
      <root>
        <mxCell id="0" />
        <mxCell id="1" parent="0" />
        <mxCell id="kAeXrJTY4RtEORMRYhfE-5" value="" style="edgeStyle=orthogonalEdgeStyle;rounded=0;orthogonalLoop=1;jettySize=auto;html=1;" edge="1" parent="1" source="kAeXrJTY4RtEORMRYhfE-1" target="kAeXrJTY4RtEORMRYhfE-4">
          <mxGeometry relative="1" as="geometry" />
        </mxCell>
        <mxCell id="kAeXrJTY4RtEORMRYhfE-1" value="параметр REVIT" style="rounded=1;whiteSpace=wrap;html=1;" vertex="1" parent="1">
          <mxGeometry x="354" y="120" width="120" height="60" as="geometry" />
        </mxCell>
        <mxCell id="kAeXrJTY4RtEORMRYhfE-7" value="" style="edgeStyle=orthogonalEdgeStyle;rounded=0;orthogonalLoop=1;jettySize=auto;html=1;" edge="1" parent="1" source="kAeXrJTY4RtEORMRYhfE-4" target="kAeXrJTY4RtEORMRYhfE-6">
          <mxGeometry relative="1" as="geometry" />
        </mxCell>
        <mxCell id="kAeXrJTY4RtEORMRYhfE-4" value="базовый уровень" style="rounded=1;whiteSpace=wrap;html=1;" vertex="1" parent="1">
          <mxGeometry x="150" y="230" width="120" height="60" as="geometry" />
        </mxCell>
        <mxCell id="kAeXrJTY4RtEORMRYhfE-6" value="параметры примитивов и материалов" style="whiteSpace=wrap;html=1;rounded=1;" vertex="1" parent="1">
          <mxGeometry x="135" y="370" width="150" height="60" as="geometry" />
        </mxCell>
      </root>
    </mxGraphModel>
  </diagram>
</mxfile>
